<mxGraphModel><root><mxCell id="0" /><mxCell id="1" parent="0" /><mxCell id="100" value="Declaration: int x = 5" style="shape=rectangle;rounded=1;" vertex="1" parent="1"><mxGeometry x="50" y="20" width="160" height="60" as="geometry" /></mxCell><mxCell id="101" value="Output: Console.WriteLine(&quot;Start&quot;);" style="shape=rectangle;rounded=1;" vertex="1" parent="1"><mxGeometry x="50" y="120" width="160" height="60" as="geometry" /></mxCell><mxCell id="102" value="If: x &gt; 3" style="shape=rectangle;rounded=1;" vertex="1" parent="1"><mxGeometry x="50" y="220" width="160" height="60" as="geometry" /></mxCell><mxCell id="103" value="Output: Console.WriteLine(&quot;x is greater than 3&quot;);" style="shape=rectangle;rounded=1;" vertex="1" parent="1"><mxGeometry x="250" y="320" width="160" height="60" as="geometry" /></mxCell><mxCell id="104" value="Output: Console.WriteLine(&quot;x is not greater than 3&quot;);" style="shape=rectangle;rounded=1;" vertex="1" parent="1"><mxGeometry x="250" y="420" width="160" height="60" as="geometry" /></mxCell><mxCell id="105" value="For: int i = 0 i &lt; 3" style="shape=rectangle;rounded=1;" vertex="1" parent="1"><mxGeometry x="50" y="520" width="160" height="60" as="geometry" /></mxCell><mxCell id="106" value="Output: Console.WriteLine(i);" style="shape=rectangle;rounded=1;" vertex="1" parent="1"><mxGeometry x="250" y="620" width="160" height="60" as="geometry" /></mxCell><mxCell id="107" value="While: x &gt; 0" style="shape=rectangle;rounded=1;" vertex="1" parent="1"><mxGeometry x="50" y="720" width="160" height="60" as="geometry" /></mxCell><mxCell id="108" value="Output: Console.WriteLine(x);" style="shape=rectangle;rounded=1;" vertex="1" parent="1"><mxGeometry x="250" y="820" width="160" height="60" as="geometry" /></mxCell><mxCell id="109" value="Expression: x--;" style="shape=rectangle;rounded=1;" vertex="1" parent="1"><mxGeometry x="250" y="920" width="160" height="60" as="geometry" /></mxCell><mxCell id="110" value="Input: Console.ReadLine();" style="shape=rectangle;rounded=1;" vertex="1" parent="1"><mxGeometry x="50" y="1020" width="160" height="60" as="geometry" /></mxCell><mxCell id="1000" value="next" style="edgeStyle=elbowEdgeStyle;rounded=0;html=1;" edge="1" source="100" target="101" parent="1"><mxGeometry relative="1" as="geometry" /></mxCell><mxCell id="1001" value="next" style="edgeStyle=elbowEdgeStyle;rounded=0;html=1;" edge="1" source="101" target="102" parent="1"><mxGeometry relative="1" as="geometry" /></mxCell><mxCell id="1002" value="TrueBranch" style="edgeStyle=elbowEdgeStyle;rounded=0;html=1;" edge="1" source="102" target="103" parent="1"><mxGeometry relative="1" as="geometry" /></mxCell><mxCell id="1003" value="FalseBranch" style="edgeStyle=elbowEdgeStyle;rounded=0;html=1;" edge="1" source="102" target="104" parent="1"><mxGeometry relative="1" as="geometry" /></mxCell><mxCell id="1004" value="next" style="edgeStyle=elbowEdgeStyle;rounded=0;html=1;" edge="1" source="102" target="105" parent="1"><mxGeometry relative="1" as="geometry" /></mxCell><mxCell id="1005" value="Body" style="edgeStyle=elbowEdgeStyle;rounded=0;html=1;" edge="1" source="105" target="106" parent="1"><mxGeometry relative="1" as="geometry" /></mxCell><mxCell id="1006" value="next" style="edgeStyle=elbowEdgeStyle;rounded=0;html=1;" edge="1" source="105" target="107" parent="1"><mxGeometry relative="1" as="geometry" /></mxCell><mxCell id="1007" value="next" style="edgeStyle=elbowEdgeStyle;rounded=0;html=1;" edge="1" source="108" target="109" parent="1"><mxGeometry relative="1" as="geometry" /></mxCell><mxCell id="1008" value="Body" style="edgeStyle=elbowEdgeStyle;rounded=0;html=1;" edge="1" source="107" target="108" parent="1"><mxGeometry relative="1" as="geometry" /></mxCell><mxCell id="1009" value="next" style="edgeStyle=elbowEdgeStyle;rounded=0;html=1;" edge="1" source="107" target="110" parent="1"><mxGeometry relative="1" as="geometry" /></mxCell></root></mxGraphModel>